<svg width="187" height="96" fill="none" xmlns="http://www.w3.org/2000/svg"><path d="M143.325 0C120.751 0 105.99 18.374 92.77 32.28 79.55 18.374 65.842 0 43.268 0 17.494 0 0 20.636 0 48c0 27.365 17.495 48 43.267 48 22.869 0 37.538-17.92 50.648-31.441C107.024 78.079 120.457 96 143.325 96c25.771 0 43.268-20.635 43.268-48 0-27.364-17.497-48-43.268-48zM43.268 76.54c-15.343 0-24.54-11.627-24.54-28.54 0-16.915 9.197-28.54 24.54-28.54 15.913 0 25.52 14.375 38.301 29.755-11.703 13.916-21.89 27.326-38.302 27.326zm100.057 0c-16.412 0-26.504-14.894-38.21-28.81 12.78-15.38 22.297-28.27 38.21-28.27 15.343 0 24.54 11.625 24.54 28.54s-9.197 28.54-24.54 28.54z"/></svg>